<svg width="45" height="31" viewBox="0 0 45 31" fill="none" xmlns="http://www.w3.org/2000/svg">
<path fill-rule="evenodd" clip-rule="evenodd" d="M20.578 1.82622C20.578 1.13034 21.1421 0.566223 21.838 0.566223H22.9605C23.6564 0.566223 24.2205 1.13034 24.2205 1.82622C24.2205 2.5221 23.6564 3.08622 22.9605 3.08622H21.838C21.1421 3.08622 20.578 2.5221 20.578 1.82622ZM16.798 6.02622C16.798 5.33034 17.3621 4.76622 18.058 4.76622H26.3207C27.0166 4.76622 27.5807 5.33034 27.5807 6.02622C27.5807 6.7221 27.0166 7.28622 26.3207 7.28622H18.058C17.3621 7.28622 16.798 6.7221 16.798 6.02622ZM13.7126 10.2929C13.7126 9.59701 14.2767 9.03289 14.9726 9.03289H29.6241C30.32 9.03289 30.8841 9.59701 30.8841 10.2929C30.8841 10.9888 30.32 11.5529 29.6241 11.5529H14.9726C14.2767 11.5529 13.7126 10.9888 13.7126 10.2929ZM10.8695 14.5596C10.8695 13.8637 11.4336 13.2996 12.1295 13.2996H32.8468C33.5427 13.2996 34.1068 13.8637 34.1068 14.5596C34.1068 15.2554 33.5427 15.8196 32.8468 15.8196H12.1295C11.4336 15.8196 10.8695 15.2554 10.8695 14.5596ZM7.10568 19.2529C7.10568 18.557 7.6698 17.9929 8.36568 17.9929H36.1503C36.8462 17.9929 37.4103 18.557 37.4103 19.2529C37.4103 19.9488 36.8462 20.5129 36.1503 20.5129H8.36568C7.6698 20.5129 7.10568 19.9488 7.10568 19.2529ZM3.88299 23.9462C3.88299 23.2503 4.44711 22.6862 5.14299 22.6862H39.8334C40.5293 22.6862 41.0934 23.2503 41.0934 23.9462C41.0934 24.6421 40.5293 25.2062 39.8334 25.2062H5.14299C4.44711 25.2062 3.88299 24.6421 3.88299 23.9462ZM0.119141 29.0662C0.119141 28.3703 0.683262 27.8062 1.37914 27.8062H43.1368C43.8327 27.8062 44.3968 28.3703 44.3968 29.0662C44.3968 29.7621 43.8327 30.3262 43.1368 30.3262H1.37914C0.683262 30.3262 0.119141 29.7621 0.119141 29.0662Z" fill="white"/>
</svg>
