<svg width="24" height="24" viewBox="0 0 24 24" fill="none" xmlns="http://www.w3.org/2000/svg">
<path fill-rule="evenodd" clip-rule="evenodd" d="M18.3981 19.0225C16.7098 20.5615 14.4645 21.5 12 21.5C11.9444 21.5 11.889 21.4995 11.8336 21.4986C11.9449 21.3436 12.0654 21.1678 12.1939 20.9672C12.7478 20.1032 13.4369 18.8044 14.2022 16.7633C14.523 15.908 14.6898 14.7671 14.7699 13.533C14.8509 12.2849 14.8464 10.8825 14.7964 9.47343C14.771 8.75596 14.7336 8.0332 14.6893 7.32421C15.0338 7.42572 15.3667 7.53725 15.6877 7.65673C15.6896 7.70129 15.6921 7.74553 15.6953 7.78931C15.7205 8.13851 15.7874 8.52432 15.878 8.92371C16.0591 9.72243 16.3512 10.6441 16.666 11.557C16.8943 12.2192 17.1403 12.8927 17.3701 13.5221C17.4573 13.7608 17.5422 13.9932 17.6229 14.2162C17.9224 15.0438 18.1584 15.7258 18.2724 16.1819C18.5248 17.1915 18.625 17.7306 18.625 18.125C18.625 18.4274 18.5663 18.6634 18.3981 19.0225ZM20.0163 17.1002C20.9557 15.6267 21.5 13.8769 21.5 12C21.5 11.8088 21.4944 11.619 21.4832 11.4306L21.4238 11.4801C20.9082 10.8614 19.4875 9.4784 17.2912 8.36083C17.3062 8.43521 17.3227 8.51227 17.3408 8.59193C17.5034 9.30885 17.7738 10.1684 18.084 11.068C18.3076 11.7164 18.5462 12.3698 18.7746 12.995C18.8629 13.2368 18.9496 13.4743 19.0334 13.7057C19.3276 14.5187 19.5916 15.2742 19.7276 15.8181C19.8497 16.3064 19.948 16.7268 20.0163 17.1002ZM21.0218 9.01567C20.6075 7.7625 19.9393 6.62485 19.0783 5.66363C18.6992 5.59391 18.3647 5.71321 18.0539 5.96673C17.8025 6.17184 17.585 6.45498 17.4215 6.75626C18.9179 7.45088 20.1265 8.27865 21.0218 9.01567ZM17.7171 4.41221C17.496 4.51917 17.2913 4.653 17.1057 4.80443C16.6399 5.18444 16.2785 5.68282 16.0286 6.18416C15.5666 6.01832 15.083 5.86784 14.5783 5.73749C14.4952 4.65563 14.4041 3.64605 14.3253 2.78664C15.5721 3.10032 16.721 3.66045 17.7171 4.41221ZM12.7956 2.53284C12.5333 2.51109 12.2679 2.5 12 2.5C11.0439 2.5 10.1207 2.64125 9.25031 2.90402C9.57067 3.09493 9.88437 3.31727 10.1705 3.55818C10.7234 4.02362 11.2904 4.65746 11.5706 5.39684C12.0638 5.37818 12.5586 5.3924 13.0508 5.44565C12.9681 4.40938 12.8797 3.44802 12.8048 2.63279L12.8048 2.6327L12.8046 2.63098C12.8016 2.59803 12.7986 2.56531 12.7956 2.53284ZM7.40218 3.68476C5.57627 4.69654 4.1188 6.29225 3.28186 8.2198C4.2787 7.61039 5.47975 6.98063 6.78816 6.47064C7.78902 6.08053 8.87002 5.75376 9.98218 5.56468C9.80612 5.28584 9.54508 4.99243 9.20447 4.70567C8.53756 4.1442 7.78962 3.79899 7.39393 3.74246L7.40218 3.68476ZM2.62269 10.4692C2.54196 10.9675 2.5 11.4789 2.5 12C2.5 13.7089 2.95121 15.3124 3.74099 16.6979C5.24625 15.1868 6.8363 13.5312 8.07574 11.7974C9.2208 10.1957 10.0147 8.59726 10.2056 7.04823C9.23359 7.2158 8.26344 7.50553 7.33291 7.86823C5.38039 8.62928 3.67704 9.68261 2.62269 10.4692ZM4.60123 17.9594C5.9605 19.6448 7.8839 20.8563 10.0845 21.3068C10.1175 21.2656 10.1513 21.2239 10.1849 21.1826L10.1849 21.1826C10.2281 21.1292 10.2709 21.0765 10.3108 21.0261C10.4791 20.814 10.6875 20.5378 10.9311 20.1578C11.4189 19.3968 12.0631 18.1956 12.7978 16.2367C13.0395 15.592 13.1956 14.6287 13.2731 13.4358C13.3496 12.2568 13.3464 10.9092 13.2973 9.52657C13.2671 8.67225 13.2195 7.80981 13.1634 6.97153C12.6928 6.90365 12.2129 6.87941 11.7284 6.89256C11.5711 8.92709 10.5695 10.8883 9.296 12.6698C7.92161 14.5923 6.16257 16.3969 4.60123 17.9594ZM23 12C23 18.0751 18.0751 23 12 23C5.92487 23 1 18.0751 1 12C1 5.92487 5.92487 1 12 1C18.0751 1 23 5.92487 23 12Z" fill="white"/>
</svg>
