<svg width="24" height="24" viewBox="0 0 24 24" fill="none" xmlns="http://www.w3.org/2000/svg">
<mask id="path-1-inside-1" fill="white">
<path fill-rule="evenodd" clip-rule="evenodd" d="M7.01461 2.25C5.31832 2.25 3.88309 2.85562 2.87561 3.9365C1.87357 5.01152 1.34961 6.49677 1.34961 8.166V14.334C1.34961 17.5947 3.27474 20.25 6.07518 20.25H9.53979L11.4913 22.0511C11.7786 22.3163 12.2214 22.3163 12.5087 22.0511L14.4602 20.25H17.1826C18.8833 20.25 20.3194 19.6447 21.3266 18.5633C22.3281 17.4878 22.8496 16.0024 22.8496 14.334V8.166C22.8496 6.4976 22.3281 5.01222 21.3267 3.93678C20.3197 2.8553 18.8839 2.25 17.1836 2.25H7.01461ZM2.84961 8.166C2.84961 6.80823 3.27265 5.71048 3.97286 4.95925C4.66763 4.21388 5.6899 3.75 7.01461 3.75H17.1836C18.5133 3.75 19.5355 4.2142 20.229 4.95897C20.9281 5.70978 21.3496 6.80739 21.3496 8.166V14.334C21.3496 15.6926 20.9281 16.7902 20.2289 17.541C19.5353 18.2857 18.5129 18.75 17.1826 18.75H14.167C13.9785 18.75 13.7969 18.821 13.6583 18.9489L12 20.4794L10.3417 18.9489C10.2031 18.821 10.0215 18.75 9.833 18.75H6.07518C4.4231 18.75 2.84961 17.1273 2.84961 14.334V8.166ZM12.8534 13.19C12.4614 13.19 12.1014 13.098 11.7734 12.914C11.4454 12.73 11.1854 12.476 10.9934 12.152C10.8014 11.824 10.7054 11.454 10.7054 11.042C10.7054 10.634 10.8014 10.268 10.9934 9.944C11.1854 9.616 11.4454 9.36 11.7734 9.176C12.1014 8.992 12.4614 8.9 12.8534 8.9C13.2494 8.9 13.6094 8.992 13.9334 9.176C14.2614 9.36 14.5194 9.616 14.7074 9.944C14.8994 10.268 14.9954 10.634 14.9954 11.042C14.9954 11.454 14.8994 11.824 14.7074 12.152C14.5194 12.476 14.2614 12.73 13.9334 12.914C13.6054 13.098 13.2454 13.19 12.8534 13.19ZM12.8534 12.44C13.1054 12.44 13.3274 12.384 13.5194 12.272C13.7114 12.156 13.8614 11.992 13.9694 11.78C14.0774 11.568 14.1314 11.322 14.1314 11.042C14.1314 10.762 14.0774 10.518 13.9694 10.31C13.8614 10.098 13.7114 9.936 13.5194 9.824C13.3274 9.712 13.1054 9.656 12.8534 9.656C12.6014 9.656 12.3774 9.712 12.1814 9.824C11.9894 9.936 11.8394 10.098 11.7314 10.31C11.6234 10.518 11.5694 10.762 11.5694 11.042C11.5694 11.322 11.6234 11.568 11.7314 11.78C11.8394 11.992 11.9894 12.156 12.1814 12.272C12.3774 12.384 12.6014 12.44 12.8534 12.44ZM7.458 11.354C7.306 11.162 7.112 11.044 6.876 11C7.092 10.932 7.264 10.816 7.392 10.652C7.524 10.488 7.59 10.284 7.59 10.04C7.59 9.832 7.536 9.646 7.428 9.482C7.324 9.318 7.168 9.19 6.96 9.098C6.756 9.006 6.512 8.96 6.228 8.96H4.5V13.148H6.306C6.59 13.148 6.836 13.1 7.044 13.004C7.252 12.908 7.41 12.776 7.518 12.608C7.63 12.436 7.686 12.238 7.686 12.014C7.686 11.766 7.61 11.546 7.458 11.354ZM6.108 10.688H5.34V9.638H6.108C6.308 9.638 6.462 9.684 6.57 9.776C6.678 9.868 6.732 9.998 6.732 10.166C6.732 10.334 6.678 10.464 6.57 10.556C6.462 10.644 6.308 10.688 6.108 10.688ZM6.66 12.32C6.548 12.416 6.39 12.464 6.186 12.464H5.34V11.336H6.168C6.372 11.336 6.534 11.388 6.654 11.492C6.774 11.592 6.834 11.732 6.834 11.912C6.834 12.088 6.776 12.224 6.66 12.32ZM10.4755 12.482H9.09547V8.96H8.25547V13.148H10.4755V12.482ZM18.0403 9.818C18.2083 9.91 18.3403 10.044 18.4363 10.22H19.4023C19.2703 9.804 19.0303 9.482 18.6823 9.254C18.3343 9.022 17.9243 8.906 17.4523 8.906C17.0523 8.906 16.6883 8.998 16.3603 9.182C16.0363 9.362 15.7803 9.616 15.5923 9.944C15.4083 10.268 15.3163 10.636 15.3163 11.048C15.3163 11.46 15.4083 11.828 15.5923 12.152C15.7803 12.476 16.0363 12.73 16.3603 12.914C16.6883 13.094 17.0543 13.184 17.4583 13.184C17.8183 13.184 18.1423 13.11 18.4303 12.962C18.7223 12.81 18.9603 12.61 19.1443 12.362C19.3283 12.114 19.4483 11.844 19.5043 11.552V10.82H17.2363V11.462H18.6763C18.6123 11.766 18.4783 12.004 18.2743 12.176C18.0703 12.344 17.8083 12.428 17.4883 12.428C17.2283 12.428 17.0003 12.372 16.8043 12.26C16.6083 12.148 16.4543 11.988 16.3423 11.78C16.2343 11.572 16.1803 11.328 16.1803 11.048C16.1803 10.776 16.2343 10.536 16.3423 10.328C16.4503 10.12 16.6003 9.96 16.7923 9.848C16.9843 9.736 17.2043 9.68 17.4523 9.68C17.6763 9.68 17.8723 9.726 18.0403 9.818Z"/>
</mask>
<path fill-rule="evenodd" clip-rule="evenodd" d="M7.01461 2.25C5.31832 2.25 3.88309 2.85562 2.87561 3.9365C1.87357 5.01152 1.34961 6.49677 1.34961 8.166V14.334C1.34961 17.5947 3.27474 20.25 6.07518 20.25H9.53979L11.4913 22.0511C11.7786 22.3163 12.2214 22.3163 12.5087 22.0511L14.4602 20.25H17.1826C18.8833 20.25 20.3194 19.6447 21.3266 18.5633C22.3281 17.4878 22.8496 16.0024 22.8496 14.334V8.166C22.8496 6.4976 22.3281 5.01222 21.3267 3.93678C20.3197 2.8553 18.8839 2.25 17.1836 2.25H7.01461ZM2.84961 8.166C2.84961 6.80823 3.27265 5.71048 3.97286 4.95925C4.66763 4.21388 5.6899 3.75 7.01461 3.75H17.1836C18.5133 3.75 19.5355 4.2142 20.229 4.95897C20.9281 5.70978 21.3496 6.80739 21.3496 8.166V14.334C21.3496 15.6926 20.9281 16.7902 20.2289 17.541C19.5353 18.2857 18.5129 18.75 17.1826 18.75H14.167C13.9785 18.75 13.7969 18.821 13.6583 18.9489L12 20.4794L10.3417 18.9489C10.2031 18.821 10.0215 18.75 9.833 18.75H6.07518C4.4231 18.75 2.84961 17.1273 2.84961 14.334V8.166ZM12.8534 13.19C12.4614 13.19 12.1014 13.098 11.7734 12.914C11.4454 12.73 11.1854 12.476 10.9934 12.152C10.8014 11.824 10.7054 11.454 10.7054 11.042C10.7054 10.634 10.8014 10.268 10.9934 9.944C11.1854 9.616 11.4454 9.36 11.7734 9.176C12.1014 8.992 12.4614 8.9 12.8534 8.9C13.2494 8.9 13.6094 8.992 13.9334 9.176C14.2614 9.36 14.5194 9.616 14.7074 9.944C14.8994 10.268 14.9954 10.634 14.9954 11.042C14.9954 11.454 14.8994 11.824 14.7074 12.152C14.5194 12.476 14.2614 12.73 13.9334 12.914C13.6054 13.098 13.2454 13.19 12.8534 13.19ZM12.8534 12.44C13.1054 12.44 13.3274 12.384 13.5194 12.272C13.7114 12.156 13.8614 11.992 13.9694 11.78C14.0774 11.568 14.1314 11.322 14.1314 11.042C14.1314 10.762 14.0774 10.518 13.9694 10.31C13.8614 10.098 13.7114 9.936 13.5194 9.824C13.3274 9.712 13.1054 9.656 12.8534 9.656C12.6014 9.656 12.3774 9.712 12.1814 9.824C11.9894 9.936 11.8394 10.098 11.7314 10.31C11.6234 10.518 11.5694 10.762 11.5694 11.042C11.5694 11.322 11.6234 11.568 11.7314 11.78C11.8394 11.992 11.9894 12.156 12.1814 12.272C12.3774 12.384 12.6014 12.44 12.8534 12.44ZM7.458 11.354C7.306 11.162 7.112 11.044 6.876 11C7.092 10.932 7.264 10.816 7.392 10.652C7.524 10.488 7.59 10.284 7.59 10.04C7.59 9.832 7.536 9.646 7.428 9.482C7.324 9.318 7.168 9.19 6.96 9.098C6.756 9.006 6.512 8.96 6.228 8.96H4.5V13.148H6.306C6.59 13.148 6.836 13.1 7.044 13.004C7.252 12.908 7.41 12.776 7.518 12.608C7.63 12.436 7.686 12.238 7.686 12.014C7.686 11.766 7.61 11.546 7.458 11.354ZM6.108 10.688H5.34V9.638H6.108C6.308 9.638 6.462 9.684 6.57 9.776C6.678 9.868 6.732 9.998 6.732 10.166C6.732 10.334 6.678 10.464 6.57 10.556C6.462 10.644 6.308 10.688 6.108 10.688ZM6.66 12.32C6.548 12.416 6.39 12.464 6.186 12.464H5.34V11.336H6.168C6.372 11.336 6.534 11.388 6.654 11.492C6.774 11.592 6.834 11.732 6.834 11.912C6.834 12.088 6.776 12.224 6.66 12.32ZM10.4755 12.482H9.09547V8.96H8.25547V13.148H10.4755V12.482ZM18.0403 9.818C18.2083 9.91 18.3403 10.044 18.4363 10.22H19.4023C19.2703 9.804 19.0303 9.482 18.6823 9.254C18.3343 9.022 17.9243 8.906 17.4523 8.906C17.0523 8.906 16.6883 8.998 16.3603 9.182C16.0363 9.362 15.7803 9.616 15.5923 9.944C15.4083 10.268 15.3163 10.636 15.3163 11.048C15.3163 11.46 15.4083 11.828 15.5923 12.152C15.7803 12.476 16.0363 12.73 16.3603 12.914C16.6883 13.094 17.0543 13.184 17.4583 13.184C17.8183 13.184 18.1423 13.11 18.4303 12.962C18.7223 12.81 18.9603 12.61 19.1443 12.362C19.3283 12.114 19.4483 11.844 19.5043 11.552V10.82H17.2363V11.462H18.6763C18.6123 11.766 18.4783 12.004 18.2743 12.176C18.0703 12.344 17.8083 12.428 17.4883 12.428C17.2283 12.428 17.0003 12.372 16.8043 12.26C16.6083 12.148 16.4543 11.988 16.3423 11.78C16.2343 11.572 16.1803 11.328 16.1803 11.048C16.1803 10.776 16.2343 10.536 16.3423 10.328C16.4503 10.12 16.6003 9.96 16.7923 9.848C16.9843 9.736 17.2043 9.68 17.4523 9.68C17.6763 9.68 17.8723 9.726 18.0403 9.818Z" fill="#A3BBD3"/>
<path d="M2.87561 3.9365L2.50985 3.59558L2.87561 3.9365ZM9.53979 20.25L9.87891 19.8826L9.73526 19.75H9.53979V20.25ZM11.4913 22.0511L11.1522 22.4186L11.4913 22.0511ZM12.5087 22.0511L12.8478 22.4186L12.5087 22.0511ZM14.4602 20.25V19.75H14.2647L14.1211 19.8826L14.4602 20.25ZM21.3266 18.5633L20.9607 18.2225L21.3266 18.5633ZM21.3267 3.93678L20.9608 4.27751V4.27751L21.3267 3.93678ZM3.97286 4.95925L4.33861 5.30017L3.97286 4.95925ZM20.229 4.95897L19.863 5.2997L20.229 4.95897ZM20.2289 17.541L20.5948 17.8817L20.2289 17.541ZM13.6583 18.9489L13.9974 19.3163L13.9974 19.3163L13.6583 18.9489ZM12 20.4794L11.6609 20.8468L12 21.1598L12.3391 20.8468L12 20.4794ZM10.3417 18.9489L10.0026 19.3163L10.0026 19.3163L10.3417 18.9489ZM11.7734 12.914L11.5287 13.3501H11.5287L11.7734 12.914ZM10.9934 12.152L10.5619 12.4046L10.5632 12.4069L10.9934 12.152ZM10.9934 9.944L11.4235 10.1989L11.4249 10.1966L10.9934 9.944ZM11.7734 9.176L11.5287 8.73993H11.5287L11.7734 9.176ZM13.9334 9.176L13.6865 9.61079L13.6887 9.61207L13.9334 9.176ZM14.7074 9.944L14.2735 10.1927L14.2772 10.1989L14.7074 9.944ZM14.7074 12.152L14.2759 11.8994L14.2749 11.9011L14.7074 12.152ZM13.5194 12.272L13.7713 12.7039L13.7779 12.7L13.5194 12.272ZM13.9694 10.31L13.5238 10.537L13.5256 10.5404L13.9694 10.31ZM13.5194 9.824L13.7713 9.39211L13.7713 9.39211L13.5194 9.824ZM12.1814 9.824L11.9333 9.38986L11.9294 9.39211L12.1814 9.824ZM11.7314 10.31L12.1751 10.5404L12.1769 10.537L11.7314 10.31ZM11.7314 11.78L11.2859 12.007V12.007L11.7314 11.78ZM12.1814 12.272L11.9227 12.7001L11.9333 12.7061L12.1814 12.272ZM6.876 11L6.72586 10.5231L6.78436 11.4915L6.876 11ZM7.458 11.354L7.06598 11.6644L7.06598 11.6644L7.458 11.354ZM7.392 10.652L7.00245 10.3385L6.99784 10.3444L7.392 10.652ZM7.428 9.482L7.00568 9.74981L7.01041 9.757L7.428 9.482ZM6.96 9.098L6.75444 9.55381L6.75775 9.55527L6.96 9.098ZM4.5 8.96V8.46H4V8.96H4.5ZM4.5 13.148H4V13.648H4.5V13.148ZM7.044 13.004L7.25353 13.458L7.25353 13.458L7.044 13.004ZM7.518 12.608L7.09899 12.3352L7.09741 12.3376L7.518 12.608ZM5.34 10.688H4.84V11.188H5.34V10.688ZM5.34 9.638V9.138H4.84V9.638H5.34ZM6.57 9.776L6.89423 9.39538L6.89423 9.39538L6.57 9.776ZM6.57 10.556L6.88591 10.9437L6.89423 10.9366L6.57 10.556ZM6.66 12.32L6.34117 11.9347L6.3346 11.9404L6.66 12.32ZM5.34 12.464H4.84V12.964H5.34V12.464ZM5.34 11.336V10.836H4.84V11.336H5.34ZM6.654 11.492L6.32647 11.8699L6.33391 11.8761L6.654 11.492ZM9.09547 12.482H8.59547V12.982H9.09547V12.482ZM10.4755 12.482H10.9755V11.982H10.4755V12.482ZM9.09547 8.96H9.59547V8.46H9.09547V8.96ZM8.25547 8.96V8.46H7.75547V8.96H8.25547ZM8.25547 13.148H7.75547V13.648H8.25547V13.148ZM10.4755 13.148V13.648H10.9755V13.148H10.4755ZM18.4363 10.22L17.9974 10.4594L18.1395 10.72H18.4363V10.22ZM19.4023 10.22V10.72H20.0855L19.8789 10.0688L19.4023 10.22ZM18.6823 9.254L18.405 9.67004L18.4083 9.67223L18.6823 9.254ZM16.3603 9.182L16.6031 9.61908L16.6049 9.61807L16.3603 9.182ZM15.5923 9.944L15.1585 9.69536L15.1575 9.69709L15.5923 9.944ZM15.5923 12.152L15.1575 12.3989L15.1598 12.4029L15.5923 12.152ZM16.3603 12.914L16.1134 13.3488L16.1198 13.3523L16.3603 12.914ZM18.4303 12.962L18.6588 13.4067L18.6612 13.4055L18.4303 12.962ZM19.5043 11.552L19.9954 11.6462L20.0043 11.5995V11.552H19.5043ZM19.5043 10.82H20.0043V10.32H19.5043V10.82ZM17.2363 10.82V10.32H16.7363V10.82H17.2363ZM17.2363 11.462H16.7363V11.962H17.2363V11.462ZM18.6763 11.462L19.1656 11.565L19.2925 10.962H18.6763V11.462ZM18.2743 12.176L18.5922 12.562L18.5966 12.5583L18.2743 12.176ZM16.8043 12.26L16.5562 12.6941L16.5562 12.6941L16.8043 12.26ZM16.3423 11.78L15.8985 12.0104L15.9021 12.0171L16.3423 11.78ZM16.3423 10.328L15.8986 10.0976L15.8986 10.0976L16.3423 10.328ZM3.24136 4.27742C4.14452 3.30846 5.44204 2.75 7.01461 2.75V1.75C5.19459 1.75 3.62167 2.40278 2.50985 3.59558L3.24136 4.27742ZM1.84961 8.166C1.84961 6.60044 2.34002 5.24441 3.24136 4.27742L2.50985 3.59558C1.40713 4.77863 0.849609 6.3931 0.849609 8.166H1.84961ZM1.84961 14.334V8.166H0.849609V14.334H1.84961ZM6.07518 19.75C3.66149 19.75 1.84961 17.444 1.84961 14.334H0.849609C0.849609 17.7454 2.888 20.75 6.07518 20.75V19.75ZM9.53979 19.75H6.07518V20.75H9.53979V19.75ZM11.8304 21.6837L9.87891 19.8826L9.20068 20.6174L11.1522 22.4186L11.8304 21.6837ZM12.1696 21.6837C12.0738 21.7721 11.9262 21.7721 11.8304 21.6837L11.1522 22.4186C11.631 22.8605 12.369 22.8605 12.8478 22.4186L12.1696 21.6837ZM14.1211 19.8826L12.1696 21.6837L12.8478 22.4186L14.7993 20.6174L14.1211 19.8826ZM17.1826 19.75H14.4602V20.75H17.1826V19.75ZM20.9607 18.2225C20.0581 19.1917 18.76 19.75 17.1826 19.75V20.75C19.0067 20.75 20.5807 20.0978 21.6925 18.904L20.9607 18.2225ZM22.3496 14.334C22.3496 15.8993 21.8614 17.2554 20.9607 18.2225L21.6925 18.904C22.7949 17.7202 23.3496 16.1055 23.3496 14.334H22.3496ZM22.3496 8.166V14.334H23.3496V8.166H22.3496ZM20.9608 4.27751C21.8614 5.24464 22.3496 6.60071 22.3496 8.166H23.3496C23.3496 6.39449 22.7949 4.7798 21.6927 3.59605L20.9608 4.27751ZM17.1836 2.75C18.7605 2.75 20.0584 3.30836 20.9608 4.27751L21.6927 3.59605C20.5811 2.40224 19.0073 1.75 17.1836 1.75V2.75ZM7.01461 2.75H17.1836V1.75H7.01461V2.75ZM3.60711 4.61833C2.80641 5.47737 2.34961 6.70421 2.34961 8.166H3.34961C3.34961 6.91225 3.73889 5.94358 4.33861 5.30017L3.60711 4.61833ZM7.01461 3.25C5.56585 3.25 4.406 3.76125 3.60711 4.61833L4.33861 5.30017C4.92925 4.66651 5.81395 4.25 7.01461 4.25V3.25ZM17.1836 3.25H7.01461V4.25H17.1836V3.25ZM20.5949 4.61824C19.797 3.76136 18.637 3.25 17.1836 3.25V4.25C18.3896 4.25 19.2739 4.66704 19.863 5.2997L20.5949 4.61824ZM21.8496 8.166C21.8496 6.70393 21.3946 5.47713 20.5949 4.61824L19.863 5.2997C20.4615 5.94242 20.8496 6.91086 20.8496 8.166H21.8496ZM21.8496 14.334V8.166H20.8496V14.334H21.8496ZM20.5948 17.8817C21.3946 17.0229 21.8496 15.7961 21.8496 14.334H20.8496C20.8496 15.5891 20.4615 16.5575 19.863 17.2002L20.5948 17.8817ZM17.1826 19.25C18.6366 19.25 19.7968 18.7386 20.5948 17.8817L19.863 17.2002C19.2738 17.8329 18.3892 18.25 17.1826 18.25V19.25ZM14.167 19.25H17.1826V18.25H14.167V19.25ZM13.9974 19.3163C14.0436 19.2737 14.1042 19.25 14.167 19.25V18.25C13.8528 18.25 13.5501 18.3683 13.3192 18.5814L13.9974 19.3163ZM12.3391 20.8468L13.9974 19.3163L13.3192 18.5814L11.6609 20.112L12.3391 20.8468ZM10.0026 19.3163L11.6609 20.8468L12.3391 20.112L10.6808 18.5814L10.0026 19.3163ZM9.833 19.25C9.89584 19.25 9.95638 19.2737 10.0026 19.3163L10.6808 18.5814C10.4499 18.3683 10.1472 18.25 9.833 18.25V19.25ZM6.07518 19.25H9.833V18.25H6.07518V19.25ZM2.34961 14.334C2.34961 17.2902 4.04593 19.25 6.07518 19.25V18.25C4.80028 18.25 3.34961 16.9644 3.34961 14.334H2.34961ZM2.34961 8.166V14.334H3.34961V8.166H2.34961ZM11.5287 13.3501C11.9347 13.5778 12.3795 13.69 12.8534 13.69V12.69C12.5433 12.69 12.2681 12.6182 12.018 12.4779L11.5287 13.3501ZM10.5632 12.4069C10.8 12.8064 11.1239 13.123 11.5287 13.3501L12.018 12.4779C11.7668 12.337 11.5708 12.1456 11.4235 11.8971L10.5632 12.4069ZM10.2054 11.042C10.2054 11.5351 10.3213 11.9936 10.5619 12.4046L11.4249 11.8994C11.2815 11.6544 11.2054 11.3729 11.2054 11.042H10.2054ZM10.5632 9.6891C10.3217 10.0967 10.2054 10.552 10.2054 11.042H11.2054C11.2054 10.716 11.281 10.4394 11.4235 10.1989L10.5632 9.6891ZM11.5287 8.73993C11.1224 8.96788 10.7983 9.28759 10.5619 9.69141L11.4249 10.1966C11.5725 9.94442 11.7683 9.75212 12.018 9.61207L11.5287 8.73993ZM12.8534 8.4C12.3795 8.4 11.9347 8.51221 11.5287 8.73993L12.018 9.61207C12.2681 9.47179 12.5433 9.4 12.8534 9.4V8.4ZM14.1803 8.74122C13.7763 8.51178 13.3303 8.4 12.8534 8.4V9.4C13.1684 9.4 13.4425 9.47223 13.6865 9.61078L14.1803 8.74122ZM15.1412 9.69536C14.9085 9.28937 14.5853 8.9684 14.178 8.73993L13.6887 9.61207C13.9375 9.7516 14.1303 9.94264 14.2736 10.1926L15.1412 9.69536ZM15.4954 11.042C15.4954 10.552 15.379 10.0967 15.1375 9.6891L14.2772 10.1989C14.4197 10.4394 14.4954 10.716 14.4954 11.042H15.4954ZM15.1389 12.4046C15.3795 11.9936 15.4954 11.5351 15.4954 11.042H14.4954C14.4954 11.3729 14.4193 11.6544 14.2759 11.8994L15.1389 12.4046ZM14.178 13.3501C14.5837 13.1225 14.9067 12.8047 15.1398 12.4029L14.2749 11.9011C14.132 12.1473 13.939 12.3375 13.6887 12.4779L14.178 13.3501ZM12.8534 13.69C13.3273 13.69 13.7721 13.5778 14.178 13.3501L13.6887 12.4779C13.4387 12.6182 13.1635 12.69 12.8534 12.69V13.69ZM13.2674 11.8401C13.1617 11.9018 13.0289 11.94 12.8534 11.94V12.94C13.1818 12.94 13.4931 12.8662 13.7713 12.7039L13.2674 11.8401ZM13.5239 11.553C13.4555 11.6872 13.3681 11.7793 13.2608 11.844L13.7779 12.7C14.0547 12.5327 14.2672 12.2968 14.4149 12.007L13.5239 11.553ZM13.6314 11.042C13.6314 11.257 13.5902 11.4228 13.5239 11.553L14.4149 12.007C14.5645 11.7132 14.6314 11.387 14.6314 11.042H13.6314ZM13.5256 10.5404C13.5901 10.6646 13.6314 10.8267 13.6314 11.042H14.6314C14.6314 10.6973 14.5646 10.3714 14.4131 10.0796L13.5256 10.5404ZM13.2674 10.2559C13.3707 10.3161 13.4562 10.4041 13.5239 10.537L14.4149 10.083C14.2666 9.79186 14.0521 9.55588 13.7713 9.39211L13.2674 10.2559ZM12.8534 10.156C13.0289 10.156 13.1617 10.1942 13.2674 10.2559L13.7713 9.39211C13.4931 9.2298 13.1818 9.156 12.8534 9.156V10.156ZM12.4294 10.2581C12.5414 10.1942 12.678 10.156 12.8534 10.156V9.156C12.5247 9.156 12.2134 9.22985 11.9333 9.38988L12.4294 10.2581ZM12.1769 10.537C12.2446 10.4041 12.3301 10.3161 12.4333 10.2559L11.9294 9.39211C11.6487 9.55588 11.4342 9.79187 11.2859 10.083L12.1769 10.537ZM12.0694 11.042C12.0694 10.8267 12.1106 10.6646 12.1751 10.5404L11.2876 10.0796C11.1361 10.3714 11.0694 10.6973 11.0694 11.042H12.0694ZM12.1769 11.553C12.1105 11.4228 12.0694 11.257 12.0694 11.042H11.0694C11.0694 11.387 11.1362 11.7132 11.2859 12.007L12.1769 11.553ZM12.4399 11.844C12.3327 11.7793 12.2452 11.6872 12.1769 11.553L11.2859 12.007C11.4335 12.2968 11.6461 12.5327 11.9228 12.7L12.4399 11.844ZM12.8534 11.94C12.678 11.94 12.5414 11.9019 12.4294 11.8379L11.9333 12.7061C12.2134 12.8662 12.5247 12.94 12.8534 12.94V11.94ZM6.78436 11.4915C6.89905 11.5129 6.98729 11.565 7.06598 11.6644L7.85002 11.0437C7.62471 10.7591 7.32495 10.5751 6.96764 10.5085L6.78436 11.4915ZM6.99784 10.3444C6.9377 10.4214 6.85421 10.4827 6.72586 10.5231L7.02614 11.4769C7.32979 11.3813 7.5903 11.2106 7.78616 10.9596L6.99784 10.3444ZM7.09 10.04C7.09 10.189 7.05191 10.2771 7.00249 10.3385L7.78151 10.9655C7.99609 10.6989 8.09 10.379 8.09 10.04H7.09ZM7.01041 9.757C7.0614 9.83442 7.09 9.92367 7.09 10.04H8.09C8.09 9.74034 8.0106 9.45758 7.84559 9.20701L7.01041 9.757ZM6.75775 9.55527C6.89112 9.61426 6.96329 9.68283 7.00575 9.74977L7.85025 9.21423C7.68471 8.95318 7.44488 8.76574 7.16225 8.64073L6.75775 9.55527ZM6.228 9.46C6.45954 9.46 6.62996 9.49766 6.75445 9.55379L7.16555 8.64221C6.88204 8.51435 6.56446 8.46 6.228 8.46V9.46ZM4.5 9.46H6.228V8.46H4.5V9.46ZM5 13.148V8.96H4V13.148H5ZM6.306 12.648H4.5V13.648H6.306V12.648ZM6.83447 12.55C6.70595 12.6093 6.53455 12.648 6.306 12.648V13.648C6.64545 13.648 6.96605 13.5907 7.25353 13.458L6.83447 12.55ZM7.09741 12.3376C7.0481 12.4143 6.96909 12.4879 6.83447 12.55L7.25353 13.458C7.53491 13.3281 7.7719 13.1377 7.93859 12.8784L7.09741 12.3376ZM7.186 12.014C7.186 12.1503 7.15333 12.2517 7.099 12.3352L7.937 12.8808C8.10667 12.6203 8.186 12.3257 8.186 12.014H7.186ZM7.06598 11.6644C7.14709 11.7668 7.186 11.8771 7.186 12.014H8.186C8.186 11.6549 8.07291 11.3252 7.85002 11.0436L7.06598 11.6644ZM5.34 11.188H6.108V10.188H5.34V11.188ZM4.84 9.638V10.688H5.84V9.638H4.84ZM6.108 9.138H5.34V10.138H6.108V9.138ZM6.89423 9.39538C6.66486 9.19998 6.37867 9.138 6.108 9.138V10.138C6.23733 10.138 6.25914 10.168 6.24577 10.1566L6.89423 9.39538ZM7.232 10.166C7.232 9.88128 7.13458 9.60012 6.89423 9.39538L6.24577 10.1566C6.24391 10.155 6.24057 10.1518 6.23698 10.1469C6.23338 10.1419 6.23103 10.1374 6.22975 10.1343C6.22712 10.128 6.232 10.1353 6.232 10.166H7.232ZM6.89423 10.9366C7.13458 10.7319 7.232 10.4507 7.232 10.166H6.232C6.232 10.1967 6.22712 10.204 6.22975 10.1977C6.23103 10.1946 6.23338 10.1901 6.23698 10.1851C6.24057 10.1802 6.24391 10.177 6.24577 10.1754L6.89423 10.9366ZM6.108 11.188C6.37412 11.188 6.6569 11.1302 6.88584 10.9436L6.25416 10.1684C6.2671 10.1578 6.24188 10.188 6.108 10.188V11.188ZM6.186 12.964C6.46379 12.964 6.75332 12.8986 6.9854 12.6996L6.3346 11.9404C6.34268 11.9335 6.31621 11.964 6.186 11.964V12.964ZM5.34 12.964H6.186V11.964H5.34V12.964ZM4.84 11.336V12.464H5.84V11.336H4.84ZM6.168 10.836H5.34V11.836H6.168V10.836ZM6.98147 11.1142C6.74715 10.9111 6.4572 10.836 6.168 10.836V11.836C6.2868 11.836 6.32085 11.8649 6.32653 11.8698L6.98147 11.1142ZM7.334 11.912C7.334 11.6089 7.22616 11.318 6.97409 11.1079L6.33391 11.8761C6.33533 11.8773 6.33448 11.8768 6.33275 11.8745C6.33099 11.8722 6.32987 11.87 6.32943 11.869C6.32836 11.8665 6.334 11.8776 6.334 11.912H7.334ZM6.97878 12.7052C7.22953 12.4977 7.334 12.209 7.334 11.912H6.334C6.334 11.9452 6.3286 11.9545 6.33058 11.9499C6.3315 11.9477 6.33334 11.9442 6.33612 11.9405C6.33742 11.9388 6.33864 11.9374 6.33965 11.9363C6.34064 11.9353 6.34124 11.9348 6.34122 11.9348L6.97878 12.7052ZM9.09547 12.982H10.4755V11.982H9.09547V12.982ZM8.59547 8.96V12.482H9.59547V8.96H8.59547ZM8.25547 9.46H9.09547V8.46H8.25547V9.46ZM8.75547 13.148V8.96H7.75547V13.148H8.75547ZM10.4755 12.648H8.25547V13.648H10.4755V12.648ZM9.97547 12.482V13.148H10.9755V12.482H9.97547ZM18.8753 9.98057C18.7357 9.72466 18.5365 9.51964 18.2805 9.37945L17.8002 10.2565C17.8802 10.3004 17.945 10.3633 17.9974 10.4594L18.8753 9.98057ZM19.4023 9.72H18.4363V10.72H19.4023V9.72ZM18.4083 9.67223C18.6551 9.83392 18.8267 10.0591 18.9257 10.3712L19.8789 10.0688C19.7139 9.54893 19.4055 9.13008 18.9563 8.83577L18.4083 9.67223ZM17.4523 9.406C17.8387 9.406 18.1494 9.49963 18.405 9.67003L18.9597 8.83798C18.5193 8.54437 18.0099 8.406 17.4523 8.406V9.406ZM16.6049 9.61807C16.8535 9.47866 17.1324 9.406 17.4523 9.406V8.406C16.9723 8.406 16.5232 8.51734 16.1157 8.74593L16.6049 9.61807ZM16.0261 10.1926C16.1698 9.94201 16.3604 9.75392 16.6031 9.61908L16.1175 8.74492C15.7122 8.97009 15.3909 9.28999 15.1585 9.69536L16.0261 10.1926ZM15.8163 11.048C15.8163 10.7132 15.8902 10.4319 16.0271 10.1909L15.1575 9.69709C14.9264 10.1041 14.8163 10.5588 14.8163 11.048H15.8163ZM16.0271 11.9051C15.8902 11.6641 15.8163 11.3828 15.8163 11.048H14.8163C14.8163 11.5372 14.9264 11.9919 15.1575 12.3989L16.0271 11.9051ZM16.6072 12.4792C16.3607 12.3392 16.1686 12.1489 16.0248 11.9011L15.1598 12.4029C15.3921 12.8031 15.7119 13.1208 16.1134 13.3488L16.6072 12.4792ZM17.4583 12.684C17.1315 12.684 16.8493 12.612 16.6009 12.4757L16.1198 13.3523C16.5273 13.576 16.9771 13.684 17.4583 13.684V12.684ZM18.2018 12.5173C17.9921 12.625 17.7478 12.684 17.4583 12.684V13.684C17.8888 13.684 18.2925 13.595 18.6588 13.4067L18.2018 12.5173ZM18.7428 12.0641C18.6068 12.2473 18.4288 12.3991 18.1994 12.5185L18.6612 13.4055C19.0158 13.2209 19.3138 12.9727 19.5459 12.6599L18.7428 12.0641ZM19.0133 11.4578C18.972 11.6732 18.8838 11.874 18.7428 12.0641L19.5459 12.6599C19.7728 12.354 19.9247 12.0148 19.9954 11.6462L19.0133 11.4578ZM19.0043 10.82V11.552H20.0043V10.82H19.0043ZM17.2363 11.32H19.5043V10.32H17.2363V11.32ZM17.7363 11.462V10.82H16.7363V11.462H17.7363ZM18.6763 10.962H17.2363V11.962H18.6763V10.962ZM18.5966 12.5583C18.8994 12.303 19.0826 11.9594 19.1656 11.565L18.187 11.359C18.1421 11.5726 18.0572 11.705 17.952 11.7937L18.5966 12.5583ZM17.4883 12.928C17.8989 12.928 18.2808 12.8184 18.5922 12.562L17.9565 11.79C17.8598 11.8696 17.7177 11.928 17.4883 11.928V12.928ZM16.5562 12.6941C16.8386 12.8555 17.1547 12.928 17.4883 12.928V11.928C17.302 11.928 17.162 11.8885 17.0524 11.8259L16.5562 12.6941ZM15.9021 12.0171C16.0563 12.3034 16.2751 12.5335 16.5562 12.6941L17.0524 11.8259C16.9415 11.7625 16.8524 11.6726 16.7825 11.543L15.9021 12.0171ZM15.6803 11.048C15.6803 11.3927 15.7471 11.7186 15.8986 12.0104L16.7861 11.5496C16.7216 11.4254 16.6803 11.2633 16.6803 11.048H15.6803ZM15.8986 10.0976C15.7481 10.3874 15.6803 10.7087 15.6803 11.048H16.6803C16.6803 10.8433 16.7205 10.6846 16.7861 10.5584L15.8986 10.0976ZM16.5404 9.41611C16.2621 9.57842 16.0477 9.81043 15.8986 10.0976L16.7861 10.5584C16.853 10.4296 16.9385 10.3416 17.0442 10.2799L16.5404 9.41611ZM17.4523 9.18C17.1263 9.18 16.8174 9.2545 16.5404 9.41611L17.0442 10.2799C17.1512 10.2175 17.2824 10.18 17.4523 10.18V9.18ZM18.2805 9.37945C18.0273 9.24079 17.746 9.18 17.4523 9.18V10.18C17.6067 10.18 17.7174 10.2112 17.8002 10.2565L18.2805 9.37945Z" fill="#A3BBD3" mask="url(#path-1-inside-1)"/>
</svg>
