<svg width="24" height="24" viewBox="0 0 24 24" fill="none" xmlns="http://www.w3.org/2000/svg">
<path fill-rule="evenodd" clip-rule="evenodd" d="M20.3701 4.97072L20.5 5.03114V5.0412V5.05547V5.06984V5.0843V5.09884V5.11348V5.12821V5.14302V5.15792V5.17292V5.18799V5.20316V5.21842V5.23376V5.24918V5.2647V5.28029V5.29598V5.31175V5.3276V5.34354V5.35956V5.37566V5.39185V5.40812V5.42448V5.44091V5.45743V5.47402V5.4907V5.50746V5.5243V5.54122V5.55822V5.5753V5.59245V5.60969V5.627V5.64439V5.66186V5.6794V5.69702V5.71472V5.73249V5.75034V5.76827V5.78626V5.80434V5.82248V5.8407V5.859V5.87736V5.8958V5.91431V5.9329V5.95155V5.97027V5.98907V6.00794V6.02687V6.04588V6.06495V6.0841V6.10331V6.12259V6.14194V6.16135V6.18084V6.20039V6.22V6.23968V6.25943V6.27924V6.29912V6.31906V6.33907V6.35914V6.37927V6.39947V6.41973V6.44005V6.46043V6.48088V6.50138V6.52195V6.54258V6.56327V6.58401V6.60482V6.62569V6.64661V6.66759V6.68864V6.70973V6.73089V6.7521V6.77337V6.7947V6.81608V6.83751V6.85901V6.88055V6.90215V6.92381V6.94551V6.96728V6.98909V7.01096V7.03288V7.05485V7.07687V7.09894V7.12106V7.14324V7.16546V7.18773V7.21006V7.23243V7.25485V7.27732V7.29983V7.3224V7.34501V7.36766V7.39037V7.41312V7.43591V7.45875V7.48164V7.50456V7.52754V7.55055V7.57362V7.59672V7.61987V7.64305V7.66628V7.68956V7.71287V7.73622V7.75962V7.78305V7.80653V7.83004V7.85359V7.87719V7.90082V7.92448V7.94819V7.97193V7.99571V8.01953V8.04338V8.06727V8.09119V8.11515V8.13914V8.16317V8.18723V8.21132V8.23545V8.25961V8.2838V8.30803V8.33228V8.35657V8.38089V8.40524V8.42962V8.45403V8.47847V8.50294V8.52744V8.55196V8.57652V8.6011V8.62571V8.65035V8.67501V8.6997V8.72441V8.74915V8.77392V8.79871V8.82353V8.84837V8.87323V8.89812V8.92302V8.94796V8.97291V8.99789V9.02288V9.0479V9.07294V9.098V9.12308V9.14818V9.1733V9.19844V9.2236V9.24877V9.27397V9.29918V9.32441V9.34965V9.37491V9.40019V9.42548V9.45079V9.47611V9.50145V9.5268V9.55217V9.57755V9.60294V9.62835V9.65376V9.6792V9.70464V9.73009V9.75555V9.78103V9.80651V9.83201V9.85751V9.88303V9.90855V9.93408V9.95962V9.98517V10.0107V10.0363V10.0618V10.0874V10.113V10.1386V10.1642V10.1898V10.2154V10.241V10.2666V10.2922V10.3178V10.3434V10.369V10.3947V10.4203V10.4459V10.4715V10.4972V10.5228V10.5484V10.574V10.5997V10.6253V10.6509V10.6765V10.7021V10.7277V10.7533V10.7789V10.8046V10.8301V10.8557V10.8813V10.9069V10.9325V10.9581V10.9836V11.0092V11.0347V11.0603V11.0858V11.1113V11.1368V11.1623V11.1878V11.2133V11.2388V11.2643V11.2897V11.3152V11.3406V11.366V11.3915V11.4168V11.4422V11.4676V11.493V11.5183V11.5436V11.5689V11.5942V11.6195V11.6448V11.67V11.6953V11.7205V11.7457V11.7709V11.796V11.8212V11.8463V11.8714V11.8965V11.9216V11.9466V11.9716V11.9966V12.0216V12.0466V12.0715V12.0965V12.1213V12.1462V12.1711V12.1959V12.2207V12.2455V12.2702V12.2949V12.3196V12.3443V12.369V12.3936V12.4182V12.4427V12.4673V12.4918V12.5163V12.5407V12.5651V12.5895V12.6139V12.6382V12.6625V12.6868V12.711V12.7352V12.7594V12.7835V12.8076V12.8317V12.8557V12.8797V12.9037V12.9276V12.9515V12.9754V12.9992V13.023V13.0468V13.0705V13.0942V13.1178V13.1414V13.165V13.1885V13.212V13.2355V13.2589V13.2822V13.3056V13.3289V13.3521V13.3753V13.3985V13.4216V13.4447V13.4677V13.4907V13.5136V13.5365V13.5594V13.5822V13.605V13.6277V13.6504V13.673V13.6956V13.7181V13.7406V13.763V13.7854V13.8077V13.83V13.8523C20.5 15.2433 19.3768 16.7331 17.2944 18.2402C15.5388 19.5108 13.4462 20.5473 11.7825 21.3334C10.1518 20.5164 8.16783 19.4861 6.51217 18.2291C4.56631 16.7518 3.5 15.2803 3.5 13.8523V13.5033V13.1414V12.7683V12.3854V12.1908V11.9944V11.7963V11.5967V11.4965V11.4714V11.4463V11.396V11.1941V10.9914V10.7881V10.5843V10.3802V10.2781V10.2525V10.227V10.2015V10.176V10.1505V10.125V10.0994V10.0739V10.0484V10.0229V9.99743V9.97193V9.94645V9.92096V9.89548V9.87001V9.84455V9.81909V9.79364V9.7682V9.74276V9.71734V9.69192V9.66651V9.56498V9.36247V9.16086V8.96036V8.76116V8.56345V8.36743V7.98125V7.79149V7.74442V7.72095V7.69752V7.6042V7.23783V6.88372V6.21855V5.10441V4.99937L3.5946 4.95206C4.15088 4.67505 4.9358 4.30538 5.84618 3.93645C7.71032 3.18101 9.93034 2.5 11.7625 2.5C13.6052 2.5 15.9497 3.18652 17.945 3.94774C18.9189 4.31927 19.7665 4.69155 20.3701 4.97072ZM11.769 22.997L11.7625 23L11.5802 22.9091C8.1378 21.1932 2 18.1337 2 13.8523V4.09253C2 4.09253 7.5 1 11.7625 1C16.025 1 22 4.09253 22 4.09253V13.8523C22 18.2076 15.218 21.3824 11.769 22.997ZM18.0516 10.3235C18.2991 10.3235 18.5 10.5109 18.5 10.7417V12.7289C18.5 12.9597 18.2991 13.1471 18.0516 13.1471H14.2721C14.0246 13.1471 13.8236 12.9597 13.8236 12.7289V12.1543H12.5971V14.0358C12.5971 14.2666 12.3962 14.454 12.1486 14.454H10.7279V15.0818C10.7279 15.3127 10.5274 15.5 10.2795 15.5H6.94845C6.70091 15.5 6.5 15.3127 6.5 15.0818V12.9986C6.5 12.7678 6.70091 12.5804 6.94845 12.5804H10.2795C10.5274 12.5804 10.7279 12.7678 10.7279 12.9986V13.6176H11.7002V9.27751H10.7279V10.0014C10.7279 10.2322 10.5274 10.4196 10.2795 10.4196H6.94845C6.70091 10.4196 6.5 10.2322 6.5 10.0014V7.91817C6.5 7.73529 6.70091 7.5 6.94845 7.5H10.2795C10.5274 7.5 10.7279 7.68734 10.7279 7.91817V8.44118H12.1486C12.3962 8.44118 12.5971 8.62852 12.5971 8.85934V11.318H13.8236V10.7417C13.8236 10.5109 14.0246 10.3235 14.2721 10.3235H18.0516Z" fill="white"/>
</svg>
