<svg width="24" height="24" viewBox="0 0 24 24" fill="none" xmlns="http://www.w3.org/2000/svg">
<path fill-rule="evenodd" clip-rule="evenodd" d="M12 20.5C16.6944 20.5 20.5 16.6944 20.5 12C20.5 7.30558 16.6944 3.5 12 3.5C7.30558 3.5 3.5 7.30558 3.5 12C3.5 16.6944 7.30558 20.5 12 20.5ZM12 22C17.5228 22 22 17.5228 22 12C22 6.47715 17.5228 2 12 2C6.47715 2 2 6.47715 2 12C2 17.5228 6.47715 22 12 22ZM7.5645 6.01589C8.57803 5.26138 9.76018 4.77772 10.9934 4.59596V6.06305C10.1176 6.22143 9.30652 6.56591 8.60266 7.05406L7.5645 6.01589ZM7.05094 8.60608L6.01398 7.56911C5.84641 7.79485 5.68966 8.0322 5.54488 8.28085C5.04229 9.14402 4.72942 10.0654 4.59351 10.9967H6.06045C6.21868 10.121 6.56298 9.30996 7.05094 8.60608ZM6.06064 13.1914H4.59533C4.77661 14.4243 5.25963 15.6063 6.01338 16.6198L7.05146 15.5817C6.56342 14.878 6.21901 14.0671 6.06064 13.1914ZM8.6034 17.1335L7.56582 18.1711C7.79246 18.3395 8.03082 18.497 8.28059 18.6425C9.1428 19.1445 10.0631 19.4572 10.9934 19.5934V18.124C10.1179 17.9657 9.30709 17.6214 8.6034 17.1335ZM13.188 18.1242V19.5925C14.4219 19.4116 15.6048 18.9285 16.6191 18.1743L15.5786 17.1337C14.8747 17.6216 14.0637 17.9659 13.188 18.1242ZM17.1306 15.582L18.1705 16.6219C18.3391 16.3952 18.4967 16.1567 18.6422 15.9068C19.1447 15.0437 19.4575 14.1225 19.5935 13.1914H18.1216C17.9632 14.0672 17.6187 14.8782 17.1306 15.582ZM18.1218 10.9967H19.5918C19.4105 9.7626 18.9267 8.57946 18.1718 7.56517L17.1311 8.60583C17.6192 9.30977 17.9635 10.1209 18.1218 10.9967ZM15.5793 7.05389L16.6187 6.01454C16.3928 5.84685 16.1553 5.69 15.9065 5.54513C15.0425 5.04208 14.1202 4.7291 13.188 4.59338V6.0629C14.064 6.2212 14.8753 6.56568 15.5793 7.05389ZM11.6129 7.97368C11.6129 7.71207 11.7842 7.5 11.9955 7.5C12.2069 7.5 12.3782 7.71207 12.3782 7.97368V8.54945C12.6268 8.56631 12.8798 8.63082 13.1372 8.74297C13.3982 8.85671 13.6314 9.01724 13.8366 9.22454C13.9027 9.29128 13.9557 9.37081 13.9772 9.46224C14.0131 9.6153 14.0308 9.87348 13.8388 10.0988C13.7931 10.1524 13.7448 10.1958 13.6958 10.2308C13.4431 10.4113 13.1619 10.235 12.8881 10.0633C12.8326 10.0285 12.7774 9.99388 12.7228 9.96246C12.5507 9.86346 12.3847 9.81396 12.2248 9.81396C12.1424 9.81396 12.0587 9.82296 11.9739 9.84096C11.8891 9.85896 11.8128 9.89346 11.7449 9.94446C11.677 9.99546 11.6201 10.0615 11.574 10.1425C11.528 10.2235 11.505 10.327 11.505 10.453C11.505 10.561 11.5232 10.651 11.5595 10.723C11.5959 10.795 11.6492 10.858 11.7195 10.912C11.7897 10.966 11.8733 11.0155 11.9703 11.0605C12.0672 11.1055 12.1763 11.152 12.2975 11.2C12.4719 11.272 12.6537 11.3515 12.8427 11.4385C13.0318 11.5255 13.2038 11.641 13.3589 11.785C13.514 11.929 13.6425 12.1074 13.7443 12.3204C13.8461 12.5334 13.897 12.7989 13.897 13.1169C13.897 13.4829 13.8424 13.7994 13.7334 14.0664C13.6243 14.3334 13.4777 14.5539 13.2935 14.7279C13.1093 14.9019 12.8985 15.0309 12.661 15.1149C12.5678 15.1479 12.4736 15.1744 12.3782 15.1944V16.0263C12.3782 16.2879 12.2069 16.5 11.9955 16.5C11.7842 16.5 11.6129 16.2879 11.6129 16.0263V15.2213C11.355 15.1888 11.1034 15.1159 10.8579 15.0024C10.7196 14.9385 10.5908 14.8638 10.4713 14.7781C10.1397 14.5403 10.0561 14.0676 10.2953 13.737C10.4912 13.4664 10.9101 13.5484 11.201 13.7127C11.2382 13.7337 11.2755 13.7554 11.3123 13.7784C11.5183 13.9074 11.7231 13.9719 11.9267 13.9719C12.0188 13.9719 12.1084 13.9599 12.1957 13.9359C12.2829 13.9119 12.3593 13.8729 12.4247 13.8189C12.4901 13.7649 12.5422 13.6929 12.581 13.6029C12.6198 13.5129 12.6392 13.4049 12.6392 13.2789C12.6392 13.1589 12.6149 13.0569 12.5665 12.9729C12.518 12.8889 12.4489 12.8124 12.3593 12.7434C12.2696 12.6744 12.1581 12.6114 12.0248 12.5544C11.8915 12.4974 11.7401 12.4359 11.5704 12.3699C11.4056 12.3039 11.2445 12.2259 11.0869 12.136C10.9294 12.0459 10.7888 11.9305 10.6652 11.7895C10.5416 11.6485 10.4423 11.4775 10.3672 11.2765C10.292 11.0755 10.2545 10.831 10.2545 10.543C10.2545 10.189 10.3126 9.88596 10.429 9.63396C10.5453 9.38196 10.698 9.17497 10.887 9.01297C11.076 8.85097 11.2893 8.73247 11.5268 8.65747C11.5554 8.64842 11.5841 8.63991 11.6129 8.63196V7.97368Z" fill="white"/>
</svg>
