<svg width="24" height="24" viewBox="0 0 24 24" fill="none" xmlns="http://www.w3.org/2000/svg">
<path d="M2 13C2 12.5 2.5 12 3 12C3.5 12 4 12.5 4 13C4 13.5 4 18 4 18C4 19.1046 4.89543 20 6 20H18C19.1046 20 20 19.1046 20 18V13C20 12.4477 20.4477 12 21 12C21.5523 12 22 12.4477 22 13V18C22 20.2091 20.2091 22 18 22H6C3.79086 22 2 20.2091 2 18C2 18 2 13.5 2 13Z" fill="#A3BBD3"/>
<path fill-rule="evenodd" clip-rule="evenodd" d="M13 14.5858L14.2929 13.2929C14.6834 12.9024 15.3166 12.9024 15.7071 13.2929C16.0976 13.6834 16.0976 14.3166 15.7071 14.7071L12.7071 17.7071C12.3166 18.0976 11.6834 18.0976 11.2929 17.7071L8.29289 14.7071C7.90237 14.3166 7.90237 13.6834 8.29289 13.2929C8.68342 12.9024 9.31658 12.9024 9.70711 13.2929L11 14.5858V3C11 2.44772 11.4477 2 12 2C12.5523 2 13 2.44772 13 3V14.5858Z" fill="#A3BBD3"/>
</svg>
