<svg width="24" height="24" viewBox="0 0 24 24" fill="none" xmlns="http://www.w3.org/2000/svg">
<path fill-rule="evenodd" clip-rule="evenodd" d="M21.1211 3.61552C21.0756 3.46982 21.0378 3.3806 21.0154 3.33234C20.9645 3.30614 20.8676 3.26022 20.7064 3.20284C20.4028 3.09482 19.9776 2.98329 19.4437 2.88897C18.3785 2.70075 16.9748 2.59754 15.4309 2.68625C15.2369 2.6974 15.0417 2.7115 14.8455 2.72871C15.5014 3.20577 16.3114 3.87828 17.2514 4.8183C18.5743 6.14124 19.7392 7.96223 20.5615 9.41709C20.7715 9.78863 20.961 10.1396 21.127 10.4568C21.2303 9.92976 21.3097 9.40421 21.3672 8.88644C21.5385 7.34562 21.5089 5.93914 21.3735 4.87247C21.3057 4.33764 21.2145 3.91449 21.1211 3.61552ZM20.5429 12.6688C20.5404 12.6637 20.5381 12.6586 20.5358 12.6534L20.5357 12.6532L20.5357 12.6531L20.5349 12.6514L20.5312 12.6431L20.5152 12.6078C20.5009 12.5763 20.4791 12.5288 20.4503 12.467C20.3928 12.3434 20.3072 12.1626 20.1964 11.9373C19.9748 11.4863 19.6534 10.8588 19.2556 10.1552C18.453 8.73504 17.3678 7.05602 16.1907 5.87896C14.9762 4.66442 14.0185 3.94964 13.3809 3.54388C13.062 3.34096 12.8228 3.21505 12.6709 3.14242C12.6102 3.11338 12.5634 3.09282 12.531 3.07925C10.308 3.56685 8.12874 4.51302 6.44062 6.11668C4.79661 7.67844 3.75521 9.75786 3.15124 11.9154C3.16926 11.9798 3.17889 12.0477 3.17889 12.1179C3.17889 12.6143 3.45286 13.4376 3.96403 14.3739C4.46055 15.2833 5.11762 16.1845 5.7514 16.8183C6.38969 17.4566 7.50259 18.3074 8.69773 19.0602C9.88013 19.805 11.0524 20.3963 11.8544 20.6085C13.9125 20.103 15.9002 19.1927 17.4572 17.7135C18.9155 16.3282 19.9078 14.5469 20.5429 12.6688ZM11.9762 22.054C14.2828 21.5077 16.589 20.485 18.4293 18.7368C24.0351 13.4115 23.3005 3.47684 22.0991 2.27277C20.8977 1.06871 11.0743 -0.231881 5.46857 5.09343C-0.137207 10.4187 0.703072 20.4593 1.79878 21.5574C2.52568 22.2859 7.14023 23.1502 11.801 22.0946C11.8613 22.0881 11.9201 22.0744 11.9762 22.054ZM9.13059 21.0545C8.71669 20.829 8.30079 20.583 7.89825 20.3294C6.65109 19.5438 5.43706 18.6253 4.69074 17.879C3.9399 17.1281 3.20088 16.1063 2.64747 15.0927C2.62252 15.047 2.59781 15.001 2.57336 14.9549C2.57256 14.9623 2.57176 14.9697 2.57098 14.9771C2.40557 16.5264 2.43806 17.9402 2.56956 19.0075C2.63552 19.5428 2.72324 19.9649 2.81177 20.2604C2.84402 20.368 2.87173 20.4429 2.89172 20.492C2.94402 20.5159 3.02626 20.5505 3.14718 20.5921C3.4468 20.6951 3.87077 20.8032 4.40483 20.8957C5.4703 21.0803 6.881 21.1865 8.4335 21.1039C8.66437 21.0916 8.89691 21.0752 9.13059 21.0545ZM10.6907 5.8183C10.9836 5.52541 11.4585 5.52541 11.7514 5.8183L12.8725 6.93941C12.9803 6.87712 13.0837 6.81887 13.1825 6.76455C13.5626 6.55539 13.8732 6.40398 14.0921 6.30363C14.2015 6.25345 14.2881 6.216 14.3489 6.19046C14.3794 6.17769 14.4034 6.16789 14.4206 6.16096L14.4414 6.1527L14.4479 6.15016L14.4501 6.14928L14.451 6.14894L14.4514 6.14879C14.4516 6.14872 14.4517 6.14866 14.7211 6.84863L14.4517 6.14866C14.8383 5.99991 15.2723 6.19272 15.421 6.5793C15.5696 6.96552 15.3774 7.39903 14.9915 7.54818L14.9913 7.54824L14.991 7.54837L14.991 7.54839L14.9907 7.54849L14.9904 7.5486L14.9903 7.54866L14.9799 7.55279C14.9696 7.55692 14.9527 7.56381 14.9295 7.57355C14.883 7.59305 14.8114 7.62398 14.7173 7.66713C14.5417 7.74765 14.2881 7.87063 13.9743 8.04118L14.7514 8.8183C15.0443 9.1112 15.0443 9.58607 14.7514 9.87896C14.4585 10.1719 13.9836 10.1719 13.6907 9.87896L12.6545 8.84277C12.2313 9.12671 11.77 9.46229 11.2874 9.85434L12.2514 10.8183C12.5443 11.1112 12.5443 11.5861 12.2514 11.879C11.9585 12.1719 11.4836 12.1719 11.1907 11.879L10.1718 10.86C9.74042 11.2903 9.3616 11.7181 9.04144 12.1083L10.2514 13.3183C10.5443 13.6112 10.5443 14.0861 10.2514 14.379C9.95851 14.6719 9.48363 14.6719 9.19074 14.379L8.13249 13.3207C8.115 13.3465 8.09833 13.3712 8.0825 13.3948C8.00837 13.5055 7.95267 13.5923 7.91623 13.6502C7.89801 13.6792 7.88462 13.7009 7.87616 13.7147L7.86717 13.7295L7.86567 13.732L7.86554 13.7322L7.86553 13.7323C7.65372 14.0881 7.19359 14.2049 6.83767 13.9932C6.48167 13.7815 6.36473 13.3212 6.57647 12.9652L7.22107 13.3486C6.57647 12.9652 6.57655 12.9651 6.57663 12.965L6.57682 12.9647L6.57728 12.9639L6.57857 12.9617L6.58259 12.955L6.59637 12.9323C6.6081 12.9132 6.6249 12.886 6.64666 12.8514C6.69018 12.7822 6.7536 12.6835 6.83614 12.5602C6.89816 12.4676 6.97104 12.361 7.05446 12.2427L6.19074 11.379C5.89785 11.0861 5.89785 10.6112 6.19074 10.3183C6.48363 10.0254 6.95851 10.0254 7.2514 10.3183L7.97603 11.0429C8.30165 10.6522 8.68144 10.228 9.11113 9.79935L8.19074 8.87896C7.89785 8.58607 7.89785 8.1112 8.19074 7.8183C8.48363 7.52541 8.95851 7.52541 9.2514 7.8183L10.2215 8.78844L10.2446 8.76942C10.7086 8.38773 11.1562 8.05359 11.5751 7.76333L10.6907 6.87896C10.3978 6.58607 10.3978 6.1112 10.6907 5.8183Z" fill="white"/>
</svg>
