<svg width="24" height="25" viewBox="0 0 24 25" fill="none" xmlns="http://www.w3.org/2000/svg">
<path fill-rule="evenodd" clip-rule="evenodd" d="M16.4283 17.9623C13.4231 18.0132 10.473 18.0111 7.57275 17.9623C4.3535 17.9623 2 15.666 2 12.5109V7.86137C2 4.70627 4.3535 2.41005 7.57275 2.41005C10.4889 2.3602 13.4411 2.36123 16.4283 2.41005C19.6476 2.41005 22 4.70731 22 7.86137V12.5109C22 15.666 19.6476 17.9623 16.4283 17.9623Z" stroke="white" stroke-width="1.5" stroke-linecap="round" stroke-linejoin="round"/>
<path d="M12 18V23.5M12 23.5H5.5M12 23.5H18" stroke="white" stroke-width="1.5" stroke-linecap="round" stroke-linejoin="round"/>
<rect x="4.5" y="6" width="3" height="2" rx="0.5" fill="white"/>
<rect x="8.5" y="6" width="3" height="2" rx="0.5" fill="#EDF2F9" fill-opacity="0.7"/>
<rect x="12.5" y="6" width="3" height="2" rx="0.5" fill="#EDF2F9" fill-opacity="0.7"/>
<rect x="16.5" y="6" width="3" height="2" rx="0.5" fill="#EDF2F9" fill-opacity="0.7"/>
<rect x="4.5" y="9" width="3" height="2" rx="0.5" fill="#EDF2F9" fill-opacity="0.7"/>
<rect x="8.5" y="9" width="3" height="2" rx="0.5" fill="white"/>
<rect x="12.5" y="9" width="3" height="2" rx="0.5" fill="white"/>
<rect x="16.5" y="9" width="3" height="2" rx="0.5" fill="white"/>
<rect x="4.5" y="12" width="3" height="2" rx="0.5" fill="#EDF2F9" fill-opacity="0.7"/>
<rect x="8.5" y="12" width="3" height="2" rx="0.5" fill="white"/>
<rect x="12.5" y="12" width="3" height="2" rx="0.5" fill="#EDF2F9" fill-opacity="0.7"/>
<rect x="16.5" y="12" width="3" height="2" rx="0.5" fill="white"/>
</svg>
