<svg width="24" height="24" viewBox="0 0 24 24" fill="none" xmlns="http://www.w3.org/2000/svg">
<path d="M12 4C11.026 4 10.1165 4.21484 9.27148 4.64453C8.42643 5.0599 7.76042 5.63281 7.27344 6.36328C6.75781 7.10807 6.5 7.92448 6.5 8.8125V9.875C6.5 10.4273 6.94772 10.875 7.5 10.875H9.625C10.1773 10.875 10.625 10.4273 10.625 9.875V8.8125C10.625 8.66927 10.7253 8.5332 10.9258 8.4043C11.2122 8.2181 11.5703 8.125 12 8.125C12.444 8.125 12.8021 8.2181 13.0742 8.4043C13.2747 8.5332 13.375 8.66927 13.375 8.8125C13.375 8.9987 13.3392 9.17057 13.2676 9.32812C13.2103 9.48568 13.11 9.65039 12.9668 9.82227C12.8236 9.99414 12.5156 10.2806 12.043 10.6816L11.8926 10.8105C11.3053 11.3118 10.8685 11.7702 10.582 12.1855C10.1523 12.8444 9.9375 13.5534 9.9375 14.3125C9.9375 14.6922 10.2453 15 10.625 15H13.375C13.7547 15 14.0625 14.6922 14.0625 14.3125C14.0625 14.1979 14.084 14.0905 14.127 13.9902C14.1842 13.89 14.2702 13.7826 14.3848 13.668C14.5137 13.5391 14.7572 13.3242 15.1152 13.0234L15.5449 12.6797C16.1178 12.207 16.5547 11.7057 16.8555 11.1758C17.2852 10.474 17.5 9.6862 17.5 8.8125C17.5 7.9388 17.2422 7.1224 16.7266 6.36328C16.2396 5.64714 15.5736 5.07422 14.7285 4.64453C13.8978 4.21484 12.9883 4 12 4ZM12 5.375C12.7591 5.375 13.4609 5.53971 14.1055 5.86914C14.7214 6.16992 15.2083 6.58529 15.5664 7.11523C15.9388 7.64518 16.125 8.21094 16.125 8.8125C16.125 9.48568 15.9818 10.0514 15.6953 10.5098C15.4948 10.8392 15.1439 11.2116 14.6426 11.627L14.3633 11.8633C13.9336 12.2214 13.6185 12.5007 13.418 12.7012C13.3257 12.7992 13.2404 12.9077 13.1621 13.0266C12.9394 13.3646 12.5923 13.625 12.1875 13.625C11.859 13.625 11.6244 13.305 11.7862 13.0192C11.8442 12.9168 11.9083 12.818 11.9785 12.7227C12.1934 12.4362 12.4655 12.1497 12.7949 11.8633L12.9023 11.7773C13.4466 11.319 13.8333 10.9466 14.0625 10.6602C14.5208 10.0872 14.75 9.47135 14.75 8.8125C14.75 8.4974 14.6641 8.21094 14.4922 7.95312C14.3346 7.68099 14.1198 7.45182 13.8477 7.26562C13.332 6.92188 12.7161 6.75 12 6.75C11.2839 6.75 10.668 6.92188 10.1523 7.26562C9.88021 7.45182 9.6582 7.68099 9.48633 7.95312C9.32878 8.21094 9.25 8.4974 9.25 8.8125V9C9.25 9.27614 9.02614 9.5 8.75 9.5H8.375C8.09886 9.5 7.875 9.27614 7.875 9V8.8125C7.875 8.19661 8.05404 7.63086 8.41211 7.11523C8.78451 6.58529 9.28581 6.16276 9.91602 5.84766C10.5462 5.53255 11.2409 5.375 12 5.375ZM12 16.375C10.8609 16.375 9.9375 17.2984 9.9375 18.4375C9.9375 19.5766 10.8609 20.5 12 20.5C13.1391 20.5 14.0625 19.5766 14.0625 18.4375C14.0625 17.2984 13.1391 16.375 12 16.375ZM11.3125 18.4375C11.3125 18.0578 11.6203 17.75 12 17.75C12.3797 17.75 12.6875 18.0578 12.6875 18.4375C12.6875 18.8172 12.3797 19.125 12 19.125C11.6203 19.125 11.3125 18.8172 11.3125 18.4375Z" fill="#A3BBD3"/>
</svg>
